<?xml version="1.0" encoding="UTF-8" standalone="no"?>
<!-- Created with Inkscape (http://www.inkscape.org/) -->

<svg
   xmlns:dc="http://purl.org/dc/elements/1.1/"
   xmlns:cc="http://creativecommons.org/ns#"
   xmlns:rdf="http://www.w3.org/1999/02/22-rdf-syntax-ns#"
   xmlns:svg="http://www.w3.org/2000/svg"
   xmlns="http://www.w3.org/2000/svg"
   xmlns:sodipodi="http://sodipodi.sourceforge.net/DTD/sodipodi-0.dtd"
   xmlns:inkscape="http://www.inkscape.org/namespaces/inkscape"
   width="731.05695"
   height="262.46179"
   id="svg2"
   version="1.1"
   inkscape:version="0.48.2 r9819"
   sodipodi:docname="systemintegrationsTest.svg"
   inkscape:export-filename="C:\Users\cbreitkreutz.INTERN\Documents\tests.png"
   inkscape:export-xdpi="90"
   inkscape:export-ydpi="90">
  <defs
     id="defs4">
    <marker
       inkscape:stockid="Arrow1Mend"
       orient="auto"
       refY="0"
       refX="0"
       id="Arrow1Mend"
       style="overflow:visible">
      <path
         id="path3803"
         d="M 0,0 5,-5 -12.5,0 5,5 0,0 z"
         style="fill-rule:evenodd;stroke:#000000;stroke-width:1pt;marker-start:none"
         transform="matrix(-0.4,0,0,-0.4,-4,0)"
         inkscape:connector-curvature="0" />
    </marker>
  </defs>
  <sodipodi:namedview
     id="base"
     pagecolor="#ffffff"
     bordercolor="#666666"
     borderopacity="1.0"
     inkscape:pageopacity="1"
     inkscape:pageshadow="2"
     inkscape:zoom="0.9899495"
     inkscape:cx="380.2325"
     inkscape:cy="230.4812"
     inkscape:document-units="px"
     inkscape:current-layer="layer1"
     showgrid="false"
     inkscape:window-width="1920"
     inkscape:window-height="1018"
     inkscape:window-x="-8"
     inkscape:window-y="-8"
     inkscape:window-maximized="1"
     fit-margin-top="0"
     fit-margin-left="0"
     fit-margin-right="0"
     fit-margin-bottom="0" />
  <metadata
     id="metadata7">
    <rdf:RDF>
      <cc:Work
         rdf:about="">
        <dc:format>image/svg+xml</dc:format>
        <dc:type
           rdf:resource="http://purl.org/dc/dcmitype/StillImage" />
        <dc:title />
      </cc:Work>
    </rdf:RDF>
  </metadata>
  <g
     inkscape:label="Ebene 1"
     inkscape:groupmode="layer"
     id="layer1"
     transform="translate(-69.9182,-565.43456)">
    <path
       sodipodi:nodetypes="csc"
       inkscape:connector-curvature="0"
       id="path5027"
       d="M 365.40707,711.86967 C 133.07199,756.31638 115.00232,758.20656 119.68746,680.04986 125.2433,587.36836 593.70155,628.02701 483.59492,576.50923"
       style="fill:none;stroke:#ff5555;stroke-width:1px;stroke-linecap:butt;stroke-linejoin:miter;stroke-opacity:1;marker-end:url(#Arrow1Mend)" />
    <rect
       style="fill:#ffffff;fill-opacity:1;stroke:none"
       id="rect5464"
       width="71.720833"
       height="60.609154"
       x="70.205605"
       y="651.58417"
       ry="0" />
    <path
       style="fill:none;stroke:#ff5555;stroke-width:1px;stroke-linecap:butt;stroke-linejoin:miter;stroke-opacity:1;marker-end:url(#Arrow1Mend)"
       d="m 651.28024,776.51943 c 201.253,70.59813 135.93347,-161.69825 2.0203,-78.7919"
       id="path4659"
       inkscape:connector-curvature="0"
       sodipodi:nodetypes="cc" />
    <rect
       style="fill:#ffffff;fill-opacity:1;stroke:#000000;stroke-width:0.95899999;stroke-linecap:round;stroke-miterlimit:4;stroke-opacity:1;stroke-dasharray:none;stroke-dashoffset:0"
       id="rect4657"
       width="78.571426"
       height="82.14286"
       x="721.92419"
       y="694.20923" />
    <rect
       style="fill:#ffffff;fill-opacity:1;stroke:#000000;stroke-width:0.82714295;stroke-linecap:round;stroke-miterlimit:4;stroke-opacity:1;stroke-dasharray:none;stroke-dashoffset:0"
       id="rect2997"
       width="74.285942"
       height="67.48381"
       x="183.25638"
       y="759.99896" />
    <rect
       y="759.99896"
       x="183.25638"
       height="17.563023"
       width="74.285942"
       id="rect2999"
       style="fill:#ffffff;fill-opacity:1;stroke:#000000;stroke-width:0.88304597;stroke-linecap:round;stroke-miterlimit:4;stroke-opacity:1;stroke-dasharray:none;stroke-dashoffset:0" />
    <text
       xml:space="preserve"
       style="font-size:12px;font-style:normal;font-variant:normal;font-weight:normal;font-stretch:normal;text-align:start;line-height:125%;letter-spacing:0px;word-spacing:0px;writing-mode:lr-tb;text-anchor:start;fill:#000000;fill-opacity:1;stroke:none;font-family:Verdana;-inkscape-font-specification:Verdana"
       x="186.11349"
       y="773.57037"
       id="text2987"
       sodipodi:linespacing="125%"><tspan
         sodipodi:role="line"
         id="tspan2989"
         x="186.11349"
         y="773.57037">unit</tspan><tspan
         sodipodi:role="line"
         x="186.11349"
         y="788.57037"
         id="tspan2991">- module</tspan><tspan
         sodipodi:role="line"
         x="186.11349"
         y="803.57037"
         id="tspan2993">- package</tspan><tspan
         sodipodi:role="line"
         x="186.11349"
         y="818.57037"
         id="tspan2995">- class</tspan></text>
    <rect
       y="758.57037"
       x="374.685"
       height="67.48381"
       width="74.285942"
       id="rect4313"
       style="fill:#ffffff;fill-opacity:1;stroke:#000000;stroke-width:0.82714295;stroke-linecap:round;stroke-miterlimit:4;stroke-opacity:1;stroke-dasharray:none;stroke-dashoffset:0" />
    <rect
       style="fill:#ffffff;fill-opacity:1;stroke:#000000;stroke-width:0.88304597;stroke-linecap:round;stroke-miterlimit:4;stroke-opacity:1;stroke-dasharray:none;stroke-dashoffset:0"
       id="rect4315"
       width="74.285942"
       height="17.563023"
       x="374.685"
       y="758.57037" />
    <text
       sodipodi:linespacing="125%"
       id="text4317"
       y="772.14178"
       x="377.54211"
       style="font-size:12px;font-style:normal;font-variant:normal;font-weight:normal;font-stretch:normal;text-align:start;line-height:125%;letter-spacing:0px;word-spacing:0px;writing-mode:lr-tb;text-anchor:start;fill:#000000;fill-opacity:1;stroke:none;font-family:Verdana;-inkscape-font-specification:Verdana"
       xml:space="preserve"><tspan
         y="772.14178"
         x="377.54211"
         id="tspan4319"
         sodipodi:role="line">unit</tspan><tspan
         id="tspan4321"
         y="787.14178"
         x="377.54211"
         sodipodi:role="line">- module</tspan><tspan
         id="tspan4323"
         y="802.14178"
         x="377.54211"
         sodipodi:role="line">- package</tspan><tspan
         id="tspan4325"
         y="817.14178"
         x="377.54211"
         sodipodi:role="line">- class</tspan></text>
    <g
       id="g3052"
       transform="translate(-71.72083,-13.131983)">
      <rect
         y="678.09753"
         x="446.70166"
         height="67.48381"
         width="74.285942"
         id="rect4343"
         style="fill:#ffffff;fill-opacity:1;stroke:#000000;stroke-width:0.82714295;stroke-linecap:round;stroke-miterlimit:4;stroke-opacity:1;stroke-dasharray:none;stroke-dashoffset:0" />
      <rect
         style="fill:#ffffff;fill-opacity:1;stroke:#000000;stroke-width:0.88304597;stroke-linecap:round;stroke-miterlimit:4;stroke-opacity:1;stroke-dasharray:none;stroke-dashoffset:0"
         id="rect4345"
         width="74.285942"
         height="17.563023"
         x="446.70166"
         y="678.09753" />
      <text
         sodipodi:linespacing="125%"
         id="text4347"
         y="691.66895"
         x="449.55878"
         style="font-size:12px;font-style:normal;font-variant:normal;font-weight:normal;font-stretch:normal;text-align:start;line-height:125%;letter-spacing:0px;word-spacing:0px;writing-mode:lr-tb;text-anchor:start;fill:#000000;fill-opacity:1;stroke:none;font-family:Verdana;-inkscape-font-specification:Verdana"
         xml:space="preserve"><tspan
           y="691.66895"
           x="449.55878"
           id="tspan4349"
           sodipodi:role="line">unit</tspan><tspan
           id="tspan4351"
           y="706.66895"
           x="449.55878"
           sodipodi:role="line">- module</tspan><tspan
           id="tspan4353"
           y="721.66895"
           x="449.55878"
           sodipodi:role="line">- package</tspan><tspan
           id="tspan4355"
           y="736.66895"
           x="449.55878"
           sodipodi:role="line">- class</tspan></text>
    </g>
    <path
       style="fill:#ffffff;stroke:#000000;stroke-width:0.95899999;stroke-linecap:round;stroke-miterlimit:4;stroke-opacity:1;stroke-dashoffset:0"
       d="m -1006.4285,470.21933 c 0,3.94489 -15.9899,7.14286 -35.7143,7.14286 -19.4463,0 -35.3186,-3.11164 -35.7072,-7.00012"
       id="path4403"
       transform="translate(1148.2753,241.35535)"
       inkscape:connector-curvature="0" />
    <path
       transform="translate(1148.2753,181.35535)"
       style="fill:#ffffff;stroke:#000000;stroke-width:0.95899999;stroke-linecap:round;stroke-miterlimit:4;stroke-opacity:1;stroke-dashoffset:0"
       d="m -1006.4285,470.21933 c 0,3.94489 -15.9899,7.14286 -35.7143,7.14286 -19.7245,0 -35.7143,-3.19797 -35.7143,-7.14286 0,-3.94489 15.9898,-7.14286 35.7143,-7.14286 19.7244,0 35.7143,3.19797 35.7143,7.14286 z"
       id="path4405"
       inkscape:connector-curvature="0" />
    <path
       style="fill:none;stroke:#000000;stroke-width:1px;stroke-linecap:butt;stroke-linejoin:miter;stroke-opacity:1"
       d="m 70.4182,651.3961 0,60.53572"
       id="path4407"
       inkscape:connector-curvature="0" />
    <path
       style="fill:none;stroke:#000000;stroke-width:1px;stroke-linecap:butt;stroke-linejoin:miter;stroke-opacity:1"
       d="m 142.0253,651.57467 0,60"
       id="path4409"
       inkscape:connector-curvature="0" />
    <g
       style="font-size:25.9358387px;font-style:normal;font-variant:normal;font-weight:normal;font-stretch:normal;text-align:start;line-height:125%;letter-spacing:0px;word-spacing:0px;writing-mode:lr-tb;text-anchor:start;fill:#000000;fill-opacity:1;stroke:none;font-family:Verdana;-inkscape-font-specification:Verdana"
       id="text4411">
      <path
         d="m 105.37855,681.76168 c -2e-5,1.71387 -0.37361,3.26731 -1.12077,4.66035 -0.74719,1.39304 -1.74131,2.4737 -2.98236,3.24198 -0.86117,0.53188 -1.821519,0.91603 -2.88106,1.15242 -1.059563,0.23639 -2.454711,0.35459 -4.185446,0.35459 l -4.761658,0 0,-18.85667 4.711002,0 c 1.84049,2e-5 3.303178,0.13299 4.38807,0.39891 1.084869,0.26597 2.003002,0.63111 2.754412,1.09544 1.28327,0.80207 2.28373,1.87006 3.00137,3.20399 0.71761,1.33395 1.07642,2.91695 1.07644,4.74899 z m -2.62145,-0.038 c -10e-6,-1.47746 -0.25751,-2.72275 -0.7725,-3.73588 -0.51502,-1.0131 -1.2833,-1.81093 -2.304845,-2.39349 -0.742966,-0.42212 -1.532353,-0.7155 -2.368165,-0.88015 -0.835833,-0.16461 -1.836286,-0.24693 -3.001364,-0.24694 l -2.355501,0 0,14.55091 2.355501,0 c 1.207291,10e-6 2.260511,-0.0886 3.159664,-0.26594 0.899131,-0.17729 1.7244,-0.50656 2.475808,-0.98779 0.937122,-0.59943 1.639972,-1.38881 2.108552,-2.36817 0.46855,-0.97934 0.70284,-2.20352 0.70285,-3.67255 z"
         id="path5458"
         inkscape:connector-curvature="0" />
      <path
         d="m 123.678,685.37092 c -1e-5,0.93714 -0.17731,1.76452 -0.53188,2.48214 -0.35461,0.71763 -0.83162,1.30861 -1.43103,1.77295 -0.7092,0.55722 -1.48803,0.95403 -2.33651,1.19042 -0.8485,0.23639 -1.92705,0.35459 -3.23565,0.35459 l -6.68658,0 0,-18.85667 5.58482,0 c 1.37614,2e-5 2.40614,0.0507 3.09001,0.15197 0.68384,0.10133 1.33815,0.31239 1.96292,0.6332 0.69228,0.36305 1.19462,0.8295 1.50701,1.39937 0.31236,0.56989 0.46855,1.25164 0.46857,2.04523 -2e-5,0.89493 -0.22797,1.65688 -0.68386,2.28585 -0.45591,0.62899 -1.06379,1.13344 -1.82361,1.51334 l 0,0.10132 c 1.27483,0.26173 2.2795,0.82105 3.01403,1.67797 0.73449,0.85694 1.10175,1.93971 1.10176,3.24832 z m -4.2171,-8.49754 c -2e-5,-0.45589 -0.076,-0.84003 -0.22795,-1.15242 -0.15198,-0.31236 -0.39682,-0.56564 -0.73452,-0.75984 -0.39681,-0.22793 -0.87804,-0.36935 -1.44369,-0.42424 -0.56567,-0.0549 -1.26641,-0.0823 -2.10222,-0.0823 l -2.9887,0 0,5.44551 3.24198,0 c 0.78516,2e-5 1.40991,-0.0401 1.87427,-0.1203 0.46433,-0.0802 0.89491,-0.24694 1.29172,-0.50023 0.3968,-0.25327 0.67752,-0.58042 0.84216,-0.98146 0.16462,-0.40101 0.24693,-0.87591 0.24695,-1.4247 z m 1.60832,8.59885 c -1e-5,-0.75983 -0.11399,-1.36348 -0.34192,-1.81095 -0.22797,-0.44745 -0.64166,-0.82737 -1.24107,-1.13976 -0.40526,-0.21106 -0.89705,-0.34825 -1.47536,-0.41158 -0.57833,-0.0633 -1.28118,-0.095 -2.10855,-0.095 l -3.9385,0 0,7.01585 3.31796,0 c 1.09754,0 1.99668,-0.057 2.69743,-0.17097 0.70073,-0.11397 1.27483,-0.32293 1.7223,-0.62686 0.47278,-0.32926 0.81893,-0.70496 1.03845,-1.1271 0.21949,-0.42213 0.32925,-0.96668 0.32926,-1.63365 z"
         id="path5460"
         inkscape:connector-curvature="0" />
    </g>
    <g
       id="g3061"
       transform="translate(69.700525,80.812203)">
      <rect
         y="485.18832"
         x="258.61044"
         height="18.687822"
         width="151.28572"
         id="rect4427"
         style="fill:#ff0000;stroke:#000000;stroke-width:1.13193071;stroke-linecap:round;stroke-miterlimit:4;stroke-opacity:1;stroke-dasharray:none;stroke-dashoffset:0" />
      <text
         sodipodi:linespacing="125%"
         id="text4624"
         y="497.73438"
         x="263.00623"
         style="font-size:12px;font-style:normal;font-variant:normal;font-weight:normal;font-stretch:normal;text-align:start;line-height:125%;letter-spacing:0px;word-spacing:0px;writing-mode:lr-tb;text-anchor:start;fill:#000000;fill-opacity:1;stroke:none;font-family:Verdana;-inkscape-font-specification:Verdana"
         xml:space="preserve"><tspan
           y="497.73438"
           x="263.00623"
           id="tspan4626"
           sodipodi:role="line">System integration test</tspan></text>
    </g>
    <path
       sodipodi:nodetypes="cc"
       inkscape:connector-curvature="0"
       id="path4630"
       d="M 317.04466,574.82709 C 220.61609,574.1128 109.71109,591.65666 102.2216,635.36296"
       style="fill:none;stroke:#ff0000;stroke-width:1px;stroke-linecap:butt;stroke-linejoin:miter;stroke-opacity:1;marker-end:url(#Arrow1Mend)" />
    <path
       style="fill:none;stroke:#ff5555;stroke-width:1px;stroke-linecap:butt;stroke-linejoin:miter;stroke-opacity:1;marker-end:url(#Arrow1Mend)"
       d="m 94.55878,725.24041 c 1.18347,60.11384 24.52723,88.87091 79.70775,89.88107"
       id="path4632"
       inkscape:connector-curvature="0"
       sodipodi:nodetypes="cc" />
    <path
       sodipodi:nodetypes="cc"
       inkscape:connector-curvature="0"
       id="path4634"
       d="m 261.82781,817.14177 c 0,0 106.42858,-1.42857 107.85715,-1.42856"
       style="fill:none;stroke:#ff5555;stroke-width:1px;stroke-linecap:butt;stroke-linejoin:miter;stroke-opacity:1;marker-end:url(#Arrow1Mend)" />
    <path
       style="fill:#ffffff;stroke:#000000;stroke-width:4.33603096;stroke-linejoin:round;stroke-miterlimit:4;stroke-dashoffset:0"
       inkscape:connector-curvature="0"
       stroke-miterlimit="4"
       id="path4952"
       d="m 648.49544,760.55038 c 1.13748,-10.77585 -2.99626,-21.01793 -10.00676,-27.56707 3.53347,-4.32444 5.98148,-9.88685 6.6557,-16.27495 1.73533,-16.44046 -8.62849,-31.8526 -23.11985,-34.38149 -1.06483,-0.18583 -2.10635,-0.13927 -3.15305,-0.17926 -0.4981,-14.54689 -10.09169,-27.32221 -23.16631,-29.60381 -12.95499,-2.26078 -24.80539,6.55904 -28.42233,20.19295 -1.42486,-0.53769 -2.88411,-1.02263 -4.40962,-1.2889 -14.49136,-2.52883 -27.64312,8.77957 -29.37845,25.22006 -0.85027,8.05262 1.21707,15.82332 5.23308,21.98539 -6.30668,4.46496 -10.9018,11.89097 -11.86756,21.04154 -1.37822,13.0559 4.9402,25.33624 14.82748,31.15367 -1.38784,3.03306 -2.43544,6.34232 -2.81852,9.97004 -1.73532,16.44046 8.63249,31.81614 23.12386,34.34505 7.287,1.27167 14.22109,-0.95078 19.55358,-5.5656 3.68533,3.44276 8.12014,5.94311 13.11308,6.81441 14.49154,2.52886 27.6433,-8.77955 29.37864,-25.22001 0.18251,-1.73064 0.19286,-3.44256 0.11696,-5.13629 12.37891,-0.5435 22.80969,-11.00811 24.34007,-25.50573 z" />
    <path
       sodipodi:nodetypes="cc"
       inkscape:connector-curvature="0"
       id="path4651"
       d="m 455.69509,812.56019 c 28.18636,-1.01015 31.79986,-18.22841 74.20885,-20.19794"
       style="fill:none;stroke:#ff5555;stroke-width:1px;stroke-linecap:butt;stroke-linejoin:miter;stroke-opacity:1;marker-end:url(#Arrow1Mend)" />
    <text
       xml:space="preserve"
       style="font-size:12px;font-style:normal;font-variant:normal;font-weight:normal;font-stretch:normal;text-align:start;line-height:125%;letter-spacing:0px;word-spacing:0px;writing-mode:lr-tb;text-anchor:start;fill:#000000;fill-opacity:1;stroke:none;font-family:Verdana;-inkscape-font-specification:Verdana"
       x="733.35278"
       y="714.92352"
       id="text4653"
       sodipodi:linespacing="125%"><tspan
         sodipodi:role="line"
         id="tspan4655"
         x="733.35278"
         y="714.92352">3rd party</tspan></text>
    <path
       style="fill:none;stroke:#ff5555;stroke-width:1px;stroke-linecap:butt;stroke-linejoin:miter;stroke-opacity:1;marker-end:url(#Arrow1Mend)"
       d="m 527.03148,682.57524 c -26.21105,0.0666 -40.56275,31.11923 -70.71069,28.28429"
       id="path4843"
       inkscape:connector-curvature="0"
       sodipodi:nodetypes="cc" />
  </g>
</svg>
